<?xml version="1.0" encoding="utf-8"?>
<!-- Generator: Adobe Illustrator 16.0.0, SVG Export Plug-In . SVG Version: 6.00 Build 0)  -->
<!DOCTYPE svg PUBLIC "-//W3C//DTD SVG 1.1//EN" "http://www.w3.org/Graphics/SVG/1.1/DTD/svg11.dtd">
<svg version="1.1" id="Layer_1" xmlns="http://www.w3.org/2000/svg" xmlns:xlink="http://www.w3.org/1999/xlink" x="0px" y="0px"
	 width="100px" height="54px" viewBox="0 0 100 54" enable-background="new 0 0 100 54" xml:space="preserve">
<g>
	<path fill="#100C08" d="M9.366,5.021l3.017,8.812H6.375L9.366,5.021z M8.169,2.89L5.726,9.817H4.023v4.024H0v2.003h4.023v4.022
		v0.003h2.005v-4.029h7.049l1.389,4.025h2.204L10.66,2.89H8.169L8.169,2.89z"/>
	<path fill="#100C08" d="M18.29,28.447c-2.108,0-3.712,1.078-4.574,2.539c-0.67,1.125-0.934,2.419-0.934,3.881
		c0,1.724,0.502,3.329,1.509,4.502c0.933,1.104,2.323,1.821,4.023,1.821c1.15,0,2.228-0.336,3.091-0.911
		c0.981-0.671,1.7-1.796,1.868-2.994h-1.988c-0.167,0.647-0.382,0.981-0.718,1.316c-0.502,0.528-1.294,0.792-2.251,0.792
		c-0.934,0-1.676-0.312-2.228-0.863c-0.742-0.742-1.173-1.939-1.173-3.04h8.573l0.025-1.221c0.023-1.63-0.55-3.188-1.532-4.265
		C21.092,29.048,19.847,28.447,18.29,28.447 M14.96,33.74c0.048-1.771,1.126-3.568,3.329-3.568c1.077,0,1.893,0.431,2.396,1.104
		c0.479,0.646,0.742,1.555,0.742,2.465H14.96z"/>
	<path fill="#100C08" d="M35.388,28.447c-2.108,0-3.713,1.078-4.575,2.539c-0.671,1.125-0.934,2.419-0.934,3.881
		c0,1.724,0.503,3.329,1.509,4.502c0.934,1.104,2.324,1.821,4.023,1.821c1.15,0,2.228-0.336,3.09-0.911
		c0.982-0.671,1.702-1.796,1.869-2.994h-1.988c-0.167,0.647-0.384,0.981-0.718,1.316c-0.503,0.528-1.294,0.792-2.252,0.792
		c-0.934,0-1.676-0.312-2.227-0.863c-0.742-0.742-1.173-1.939-1.173-3.04h8.574l0.023-1.221c0.023-1.63-0.552-3.188-1.533-4.265
		C38.189,29.048,36.944,28.447,35.388,28.447 M32.058,33.74c0.048-1.771,1.125-3.568,3.33-3.568c1.077,0,1.891,0.431,2.394,1.104
		c0.48,0.646,0.744,1.555,0.744,2.465H32.058z"/>
	<polygon fill="#100C08" points="14.553,23.897 2.291,23.897 2.291,25.885 7.344,25.885 7.344,40.877 9.5,40.877 9.5,25.885 
		14.553,25.885 	"/>
	<path fill="#100C08" d="M94.498,38.602c-0.48,0.504-1.221,0.815-2.061,0.815c-0.934,0-1.58-0.335-2.107-0.79
		c-0.959-0.815-1.223-2.323-1.223-3.809s0.266-2.994,1.223-3.809c0.527-0.455,1.174-0.789,2.107-0.789
		c0.791,0,1.484,0.287,1.963,0.742c0.455,0.455,0.768,1.054,0.863,1.891h2.061c-0.096-1.314-0.625-2.32-1.438-3.112
		c-0.838-0.813-2.014-1.292-3.449-1.292c-2.18,0-3.543,1.006-4.406,2.274c-0.648,0.958-1.006,2.275-1.006,4.095
		c0,1.82,0.357,3.138,1.006,4.097c0.861,1.27,2.252,2.275,4.43,2.275c1.486,0,2.633-0.481,3.498-1.318
		c0.814-0.79,1.318-1.771,1.412-3.065h-2.059C95.217,37.597,94.928,38.148,94.498,38.602"/>
	<path fill="#100C08" d="M76.932,37.525v-7.019h3.594V28.76h-3.594V25.19l-2.035,0.479v3.09h-2.348v1.747h2.348v7.258
		c0,1.627,0.719,3.281,3.33,3.281c1.125,0,1.867-0.19,2.418-0.336v-1.748c0,0-1.223,0.215-2.084,0.215
		C77.436,39.177,76.932,38.698,76.932,37.525"/>
	<rect x="82.828" y="28.761" fill="#100C08" width="2.086" height="12.118"/>
	<path fill="#100C08" d="M55.283,28.448c-1.531,0-3.088,0.79-3.734,2.298c-0.527-1.482-1.821-2.298-3.617-2.298
		c-1.365,0-2.753,0.67-3.402,2.036l-0.19-1.725h-1.772v12.118h2.036v-6.441c0-1.007,0.214-2.302,0.814-3.067
		c0.502-0.646,1.197-1.077,2.058-1.077c1.941,0,2.444,1.174,2.444,2.874v7.712h2.035v-6.441c0-1.271,0.217-2.491,1.031-3.33
		c0.479-0.503,1.078-0.814,1.844-0.814c1.916,0,2.467,1.174,2.467,2.874v7.712h2.035v-7.976
		C59.332,30.221,58.039,28.448,55.283,28.448"/>
	<path fill="#100C08" d="M70.445,20.162c1.484,0,2.635-0.479,3.498-1.317c0.812-0.79,1.314-1.771,1.41-3.066h-2.059
		c-0.096,0.792-0.383,1.34-0.814,1.798c-0.479,0.501-1.221,0.812-2.059,0.812c-0.936,0-1.582-0.334-2.107-0.791
		c-0.959-0.813-1.223-2.322-1.223-3.808c0-1.484,0.264-2.994,1.223-3.808c0.525-0.455,1.172-0.791,2.107-0.791
		c0.789,0,1.484,0.289,1.963,0.743c0.455,0.455,0.768,1.054,0.863,1.893h2.059c-0.094-1.317-0.623-2.323-1.438-3.114
		c-0.838-0.813-2.012-1.292-3.447-1.292c-2.18,0-3.545,1.005-4.406,2.275c-0.648,0.958-1.006,2.276-1.006,4.095
		c0,1.82,0.357,3.138,1.006,4.095C66.877,19.156,68.266,20.162,70.445,20.162"/>
	<polygon fill="#100C08" points="35.838,19.851 40.222,7.731 38.161,7.731 34.784,17.457 31.287,7.731 29.156,7.731 33.634,19.851 	
		"/>
	<path fill="#100C08" d="M63.018,19.851v-7.976c0-2.804-1.436-4.455-4.191-4.455c-1.367,0-3.041,0.743-3.664,2.132l-0.17-1.821
		h-1.771v12.12h2.037v-5.629c0-0.936,0.023-2.204,0.43-3.09c0.527-1.1,1.463-1.867,2.635-1.867c1.916,0,2.658,1.076,2.658,2.897
		v7.688H63.018z"/>
	<path fill="#100C08" d="M97.965,2.559v6.586c-0.646-1.101-2.203-1.724-3.521-1.724c-1.412,0-2.539,0.478-3.328,1.221
		c-1.223,1.174-1.846,3.089-1.846,5.174c0,2.01,0.6,3.855,1.748,5.029c0.791,0.814,1.941,1.317,3.426,1.317
		c1.367,0,2.922-0.67,3.617-1.892l0.143,1.58H100V2.559H97.965z M96.742,17.647c-0.479,0.431-1.078,0.79-1.963,0.79
		c-2.707,0-3.426-2.418-3.426-4.646c0-2.227,0.719-4.647,3.426-4.647c0.885,0,1.484,0.36,1.963,0.79
		c1.006,0.887,1.344,2.348,1.344,3.857C98.086,15.301,97.748,16.762,96.742,17.647"/>
	<path fill="#100C08" d="M82.396,7.421c-2.107,0-3.713,1.078-4.576,2.538c-0.67,1.126-0.934,2.419-0.934,3.88
		c0,1.725,0.504,3.329,1.51,4.503c0.934,1.101,2.324,1.82,4.025,1.82c1.148,0,2.225-0.335,3.088-0.91
		c0.982-0.67,1.701-1.795,1.869-2.994h-1.988c-0.168,0.648-0.385,0.982-0.719,1.318c-0.504,0.526-1.293,0.79-2.25,0.79
		c-0.936,0-1.678-0.312-2.229-0.863c-0.742-0.742-1.174-1.939-1.174-3.04h8.574l0.023-1.224c0.023-1.627-0.551-3.185-1.533-4.261
		C85.199,8.018,83.953,7.421,82.396,7.421 M79.066,12.714c0.049-1.772,1.127-3.569,3.33-3.569c1.078,0,1.893,0.43,2.395,1.101
		c0.479,0.647,0.742,1.558,0.742,2.468H79.066z"/>
	<path fill="#100C08" d="M50.323,9.743c-0.575-1.316-1.917-2.322-4.263-2.322c-1.485,0-2.922,0.431-3.737,1.292
		c-0.623,0.647-1.03,1.438-1.054,2.54h1.988c0-0.6,0.216-1.079,0.599-1.462c0.407-0.407,1.102-0.718,2.204-0.718
		c0.981,0,1.58,0.24,1.987,0.623c0.551,0.503,0.623,1.245,0.623,1.845v0.886l-3.689,0.215c-3.305,0.192-4.31,2.227-4.31,3.784
		c0,1.869,1.388,3.736,4.168,3.736c1.686,0,3.183-0.756,3.884-1.961l-0.018,1.645h1.971l0.006,0.005v-8.239
		C50.682,10.917,50.563,10.294,50.323,9.743 M48.67,14.725c0,1.006-0.312,2.013-1.031,2.755c-0.647,0.67-1.556,0.982-2.491,0.982
		c-1.724,0-2.394-1.006-2.394-2.085c0-1.534,1.437-2.107,2.658-2.179l3.258-0.192V14.725L48.67,14.725z"/>
	<path fill="#100C08" d="M25.915,19.851h1.796V2.559h-2.037v6.586c-0.645-1.101-2.202-1.724-3.519-1.724
		c-1.415,0-2.539,0.478-3.33,1.221c-1.221,1.173-1.844,3.089-1.844,5.173c0,2.012,0.599,3.856,1.749,5.031
		c0.789,0.813,1.94,1.316,3.425,1.316c1.364,0,2.92-0.671,3.615-1.893L25.915,19.851z M24.453,17.647
		c-0.478,0.431-1.076,0.79-1.963,0.79c-2.707,0-3.426-2.419-3.426-4.647c0-2.227,0.718-4.646,3.426-4.646
		c0.887,0,1.485,0.359,1.963,0.791c1.006,0.885,1.343,2.346,1.343,3.855C25.796,15.3,25.459,16.761,24.453,17.647"/>
	<path fill="#100C08" d="M70.973,30.755c-0.574-1.316-1.916-2.322-4.264-2.322c-1.484,0-2.922,0.431-3.736,1.294
		c-0.623,0.646-1.029,1.436-1.055,2.538h1.988c0-0.599,0.217-1.079,0.6-1.462c0.406-0.406,1.102-0.719,2.203-0.719
		c0.98,0,1.58,0.24,1.988,0.624c0.551,0.503,0.621,1.245,0.621,1.845v0.886l-3.688,0.216c-3.305,0.191-4.311,2.227-4.311,3.783
		c0,1.869,1.389,3.736,4.168,3.736c1.688,0,3.184-0.756,3.885-1.961l-0.018,1.645h1.971l0.006,0.005v-8.237
		C71.332,31.93,71.213,31.307,70.973,30.755 M69.32,35.736c0,1.007-0.312,2.014-1.031,2.756c-0.646,0.67-1.555,0.982-2.49,0.982
		c-1.725,0-2.395-1.006-2.395-2.085c0-1.534,1.436-2.107,2.658-2.18l3.258-0.191V35.736z"/>
	<rect x="25.674" y="23.888" fill="#100C08" width="2.037" height="16.985"/>
	<path fill="#100C08" d="M65.182,51.134c-0.363,0.363-0.92,0.511-1.506,0.511c-0.504,0-1.035-0.134-1.426-0.491
		c-0.281-0.255-0.498-0.658-0.498-1.109h0.889c0,0.235,0.107,0.444,0.248,0.585c0.203,0.201,0.525,0.256,0.801,0.256
		c0.33,0,0.646-0.067,0.828-0.256c0.107-0.114,0.188-0.229,0.188-0.457c0-0.35-0.27-0.512-0.564-0.565
		c-0.324-0.061-0.74-0.073-1.057-0.127c-0.658-0.107-1.211-0.538-1.211-1.332c0-0.377,0.17-0.692,0.418-0.941
		c0.316-0.31,0.84-0.505,1.398-0.505c0.512,0,1.01,0.161,1.332,0.465c0.281,0.269,0.477,0.618,0.484,1.016h-0.889
		c-0.006-0.168-0.094-0.351-0.207-0.472c-0.156-0.16-0.471-0.255-0.727-0.255c-0.27,0-0.578,0.061-0.773,0.263
		c-0.102,0.107-0.162,0.229-0.162,0.403c0,0.31,0.201,0.471,0.484,0.518c0.303,0.047,0.727,0.081,1.035,0.121
		c0.713,0.101,1.311,0.565,1.311,1.378C65.578,50.582,65.418,50.897,65.182,51.134"/>
	<polygon fill="#100C08" points="69.871,46.789 68.695,48.847 67.516,46.789 66.574,46.789 68.23,49.728 68.23,51.557 
		69.104,51.557 69.104,49.728 70.771,46.789 	"/>
	<path fill="#100C08" d="M75.178,51.134c-0.363,0.363-0.92,0.511-1.506,0.511c-0.504,0-1.035-0.134-1.426-0.491
		c-0.283-0.255-0.498-0.658-0.498-1.109h0.889c0,0.235,0.107,0.444,0.248,0.585c0.201,0.201,0.525,0.256,0.801,0.256
		c0.33,0,0.645-0.067,0.828-0.256c0.107-0.114,0.188-0.229,0.188-0.457c0-0.35-0.27-0.512-0.564-0.565
		c-0.324-0.061-0.74-0.073-1.057-0.127c-0.658-0.107-1.211-0.538-1.211-1.332c0-0.377,0.168-0.692,0.418-0.941
		c0.314-0.31,0.84-0.505,1.398-0.505c0.512,0,1.01,0.161,1.332,0.465c0.281,0.269,0.477,0.618,0.484,1.016h-0.889
		c-0.006-0.168-0.094-0.351-0.209-0.472c-0.154-0.16-0.471-0.255-0.727-0.255c-0.268,0-0.578,0.061-0.771,0.263
		c-0.102,0.107-0.162,0.229-0.162,0.403c0,0.31,0.201,0.471,0.484,0.518c0.303,0.047,0.727,0.081,1.035,0.121
		c0.713,0.101,1.311,0.565,1.311,1.378C75.576,50.582,75.414,50.897,75.178,51.134"/>
	<polygon fill="#100C08" points="76.646,46.789 76.646,47.597 78.059,47.597 78.059,51.557 78.926,51.557 78.926,47.597 
		80.338,47.597 80.338,46.789 	"/>
	<polygon fill="#100C08" points="81.879,46.789 81.879,51.557 85.275,51.557 85.275,50.771 82.746,50.771 82.746,49.465 
		84.973,49.465 84.973,48.686 82.746,48.686 82.746,47.576 85.275,47.576 85.275,46.789 	"/>
	<polygon fill="#100C08" points="90.723,46.789 89.465,50.185 88.215,46.789 87.045,46.789 87.045,51.557 87.885,51.557 
		87.885,48.114 89.115,51.49 89.756,51.49 90.992,48.153 90.992,51.557 91.834,51.557 91.834,46.789 	"/>
	<path fill="#100C08" d="M96.967,51.134c-0.363,0.363-0.922,0.511-1.508,0.511c-0.504,0-1.035-0.134-1.426-0.491
		c-0.281-0.255-0.496-0.658-0.496-1.109h0.887c0,0.235,0.107,0.444,0.248,0.585c0.203,0.201,0.525,0.256,0.801,0.256
		c0.33,0,0.645-0.067,0.828-0.256c0.107-0.114,0.188-0.229,0.188-0.457c0-0.35-0.268-0.512-0.564-0.565
		c-0.322-0.061-0.738-0.073-1.055-0.127c-0.66-0.107-1.211-0.538-1.211-1.332c0-0.377,0.168-0.692,0.416-0.941
		c0.316-0.31,0.842-0.505,1.398-0.505c0.512,0,1.01,0.161,1.332,0.465c0.283,0.269,0.479,0.618,0.484,1.016h-0.887
		c-0.008-0.168-0.096-0.351-0.209-0.472c-0.154-0.16-0.471-0.255-0.727-0.255c-0.27,0-0.58,0.061-0.773,0.263
		c-0.102,0.107-0.162,0.229-0.162,0.403c0,0.31,0.203,0.471,0.484,0.518c0.303,0.047,0.727,0.081,1.035,0.121
		c0.713,0.101,1.312,0.565,1.312,1.378C97.363,50.582,97.201,50.897,96.967,51.134"/>
</g>
</svg>
